<mxfile host="app.diagrams.net" agent="Mozilla/5.0 (Windows NT 10.0; Win64; x64) AppleWebKit/537.36 (KHTML, like Gecko) Chrome/134.0.0.0 Safari/537.36" version="26.1.1">
  <diagram name="Page-1" id="XJj7zCuvWrVC_WO548gF">
    <mxGraphModel grid="1" page="1" gridSize="10" guides="1" tooltips="1" connect="1" arrows="1" fold="1" pageScale="1" pageWidth="850" pageHeight="1100" math="0" shadow="0">
      <root>
        <mxCell id="0" />
        <mxCell id="1" parent="0" />
        <mxCell id="C-4LYL2q1EhhrCgDg1ih-14" value="Pegawai" style="swimlane;fontStyle=1;align=center;verticalAlign=top;childLayout=stackLayout;horizontal=1;startSize=26;horizontalStack=0;resizeParent=1;resizeParentMax=0;resizeLast=0;collapsible=1;marginBottom=0;whiteSpace=wrap;html=1;" vertex="1" parent="1">
          <mxGeometry x="1050" y="40" width="350" height="370" as="geometry" />
        </mxCell>
        <mxCell id="C-4LYL2q1EhhrCgDg1ih-15" value="- nip : String&lt;div&gt;- nama : String&lt;/div&gt;&lt;div&gt;- tanggalLahir :&amp;nbsp;&lt;span style=&quot;background-color: transparent; color: light-dark(rgb(0, 0, 0), rgb(255, 255, 255));&quot;&gt;LocalDate&lt;/span&gt;&lt;/div&gt;&lt;div&gt;- tmt : LocalDate&lt;/div&gt;&lt;div&gt;- gajiPokok : double&lt;/div&gt;" style="text;strokeColor=none;fillColor=none;align=left;verticalAlign=top;spacingLeft=4;spacingRight=4;overflow=hidden;rotatable=0;points=[[0,0.5],[1,0.5]];portConstraint=eastwest;whiteSpace=wrap;html=1;" vertex="1" parent="C-4LYL2q1EhhrCgDg1ih-14">
          <mxGeometry y="26" width="350" height="84" as="geometry" />
        </mxCell>
        <mxCell id="C-4LYL2q1EhhrCgDg1ih-16" value="" style="line;strokeWidth=1;fillColor=none;align=left;verticalAlign=middle;spacingTop=-1;spacingLeft=3;spacingRight=3;rotatable=0;labelPosition=right;points=[];portConstraint=eastwest;strokeColor=inherit;" vertex="1" parent="C-4LYL2q1EhhrCgDg1ih-14">
          <mxGeometry y="110" width="350" height="8" as="geometry" />
        </mxCell>
        <mxCell id="C-4LYL2q1EhhrCgDg1ih-17" value="+ Pegawai()&amp;nbsp;&lt;div&gt;+ Pegawai(nip: String, nama: String, tanggalLahir: LocalDate, tmt: LocalDate, gajiPokok: double)&amp;nbsp;&lt;div&gt;+ getNip() : String&lt;/div&gt;&lt;div&gt;+ setNip(nip: String)&lt;/div&gt;&lt;div&gt;+ getNama() : String&lt;/div&gt;&lt;div&gt;+ setNama(nama : String)&lt;/div&gt;&lt;div&gt;+ getTanggalLahir() : LocalDate&lt;/div&gt;&lt;/div&gt;&lt;div&gt;+ setTanggalLahir(tanggalLahir: int)&lt;/div&gt;&lt;div&gt;+ getTmt() : LocalDate&lt;/div&gt;&lt;div&gt;+ setTmt(tmt : LocalDate)&lt;/div&gt;&lt;div&gt;+ getGajiPokok() : double&lt;/div&gt;&lt;div&gt;+ setGajiPokok(gajiPokok: double)&lt;/div&gt;&lt;div&gt;+ hitungMasaKerja() : String&lt;/div&gt;&lt;div&gt;+ formatTanggal(tanggal : LocalDate)&lt;/div&gt;&lt;div&gt;+ printInfo() : void&lt;/div&gt;" style="text;strokeColor=none;fillColor=none;align=left;verticalAlign=top;spacingLeft=4;spacingRight=4;overflow=hidden;rotatable=0;points=[[0,0.5],[1,0.5]];portConstraint=eastwest;whiteSpace=wrap;html=1;" vertex="1" parent="C-4LYL2q1EhhrCgDg1ih-14">
          <mxGeometry y="118" width="350" height="252" as="geometry" />
        </mxCell>
        <mxCell id="C-4LYL2q1EhhrCgDg1ih-18" value="Dosen" style="swimlane;fontStyle=1;align=center;verticalAlign=top;childLayout=stackLayout;horizontal=1;startSize=26;horizontalStack=0;resizeParent=1;resizeParentMax=0;resizeLast=0;collapsible=1;marginBottom=0;whiteSpace=wrap;html=1;" vertex="1" parent="1">
          <mxGeometry x="1050" y="480" width="350" height="160" as="geometry" />
        </mxCell>
        <mxCell id="C-4LYL2q1EhhrCgDg1ih-19" value="- fakultas : String" style="text;strokeColor=none;fillColor=none;align=left;verticalAlign=top;spacingLeft=4;spacingRight=4;overflow=hidden;rotatable=0;points=[[0,0.5],[1,0.5]];portConstraint=eastwest;whiteSpace=wrap;html=1;" vertex="1" parent="C-4LYL2q1EhhrCgDg1ih-18">
          <mxGeometry y="26" width="350" height="34" as="geometry" />
        </mxCell>
        <mxCell id="C-4LYL2q1EhhrCgDg1ih-20" value="" style="line;strokeWidth=1;fillColor=none;align=left;verticalAlign=middle;spacingTop=-1;spacingLeft=3;spacingRight=3;rotatable=0;labelPosition=right;points=[];portConstraint=eastwest;strokeColor=inherit;" vertex="1" parent="C-4LYL2q1EhhrCgDg1ih-18">
          <mxGeometry y="60" width="350" height="8" as="geometry" />
        </mxCell>
        <mxCell id="C-4LYL2q1EhhrCgDg1ih-21" value="+ Dosen()&amp;nbsp;&lt;div&gt;+ Dosen(fakultas: String)&amp;nbsp;&lt;div&gt;+ getFakultas() : String&lt;/div&gt;&lt;div&gt;+ setFakultas(fakultas: String)&lt;/div&gt;&lt;div&gt;+ printInfo() : void&lt;br&gt;&lt;/div&gt;&lt;/div&gt;" style="text;strokeColor=none;fillColor=none;align=left;verticalAlign=top;spacingLeft=4;spacingRight=4;overflow=hidden;rotatable=0;points=[[0,0.5],[1,0.5]];portConstraint=eastwest;whiteSpace=wrap;html=1;" vertex="1" parent="C-4LYL2q1EhhrCgDg1ih-18">
          <mxGeometry y="68" width="350" height="92" as="geometry" />
        </mxCell>
        <mxCell id="C-4LYL2q1EhhrCgDg1ih-22" value="Dosen Tamu" style="swimlane;fontStyle=1;align=center;verticalAlign=top;childLayout=stackLayout;horizontal=1;startSize=26;horizontalStack=0;resizeParent=1;resizeParentMax=0;resizeLast=0;collapsible=1;marginBottom=0;whiteSpace=wrap;html=1;" vertex="1" parent="1">
          <mxGeometry x="890" y="750" width="350" height="200" as="geometry" />
        </mxCell>
        <mxCell id="C-4LYL2q1EhhrCgDg1ih-23" value="- nidk : String&lt;div&gt;- kontrakBerakhir : LocalDate&lt;/div&gt;" style="text;strokeColor=none;fillColor=none;align=left;verticalAlign=top;spacingLeft=4;spacingRight=4;overflow=hidden;rotatable=0;points=[[0,0.5],[1,0.5]];portConstraint=eastwest;whiteSpace=wrap;html=1;" vertex="1" parent="C-4LYL2q1EhhrCgDg1ih-22">
          <mxGeometry y="26" width="350" height="34" as="geometry" />
        </mxCell>
        <mxCell id="C-4LYL2q1EhhrCgDg1ih-24" value="" style="line;strokeWidth=1;fillColor=none;align=left;verticalAlign=middle;spacingTop=-1;spacingLeft=3;spacingRight=3;rotatable=0;labelPosition=right;points=[];portConstraint=eastwest;strokeColor=inherit;" vertex="1" parent="C-4LYL2q1EhhrCgDg1ih-22">
          <mxGeometry y="60" width="350" height="8" as="geometry" />
        </mxCell>
        <mxCell id="C-4LYL2q1EhhrCgDg1ih-25" value="+ DosenTamu()&amp;nbsp;&lt;div&gt;+ DosenTamu(nidk: String, kontrakBerakhir: LocalDate)&amp;nbsp;&lt;div&gt;+ getNidk() : String&lt;/div&gt;&lt;div&gt;+ setNidk(nidk: String)&lt;/div&gt;&lt;div&gt;+ getKontrakBerakhir() : LocalDate&lt;/div&gt;&lt;div&gt;+ setKontrakBerakhir(kontrakBerakhir: LocalDate)&lt;/div&gt;&lt;div&gt;+ hitungTunjangan() : double&lt;/div&gt;&lt;div&gt;+ printInfo() : void&lt;br&gt;&lt;/div&gt;&lt;/div&gt;" style="text;strokeColor=none;fillColor=none;align=left;verticalAlign=top;spacingLeft=4;spacingRight=4;overflow=hidden;rotatable=0;points=[[0,0.5],[1,0.5]];portConstraint=eastwest;whiteSpace=wrap;html=1;" vertex="1" parent="C-4LYL2q1EhhrCgDg1ih-22">
          <mxGeometry y="68" width="350" height="132" as="geometry" />
        </mxCell>
        <mxCell id="C-4LYL2q1EhhrCgDg1ih-26" value="Dosen Tetap" style="swimlane;fontStyle=1;align=center;verticalAlign=top;childLayout=stackLayout;horizontal=1;startSize=26;horizontalStack=0;resizeParent=1;resizeParentMax=0;resizeLast=0;collapsible=1;marginBottom=0;whiteSpace=wrap;html=1;" vertex="1" parent="1">
          <mxGeometry x="1330" y="750" width="350" height="190" as="geometry" />
        </mxCell>
        <mxCell id="C-4LYL2q1EhhrCgDg1ih-27" value="- nidn : String" style="text;strokeColor=none;fillColor=none;align=left;verticalAlign=top;spacingLeft=4;spacingRight=4;overflow=hidden;rotatable=0;points=[[0,0.5],[1,0.5]];portConstraint=eastwest;whiteSpace=wrap;html=1;" vertex="1" parent="C-4LYL2q1EhhrCgDg1ih-26">
          <mxGeometry y="26" width="350" height="34" as="geometry" />
        </mxCell>
        <mxCell id="C-4LYL2q1EhhrCgDg1ih-28" value="" style="line;strokeWidth=1;fillColor=none;align=left;verticalAlign=middle;spacingTop=-1;spacingLeft=3;spacingRight=3;rotatable=0;labelPosition=right;points=[];portConstraint=eastwest;strokeColor=inherit;" vertex="1" parent="C-4LYL2q1EhhrCgDg1ih-26">
          <mxGeometry y="60" width="350" height="8" as="geometry" />
        </mxCell>
        <mxCell id="C-4LYL2q1EhhrCgDg1ih-29" value="+ DosenTetap()&amp;nbsp;&lt;div&gt;+ DosenTetap(nidn: String)&lt;div&gt;+ getNidn() : String&lt;/div&gt;&lt;div&gt;+ setNidn(nidn: String)&lt;/div&gt;&lt;div&gt;+ hitungBUP() : LocalDate&lt;/div&gt;&lt;div&gt;+ hitungTunjangan() : double&lt;/div&gt;&lt;div&gt;+ printInfo() : void&lt;br&gt;&lt;/div&gt;&lt;/div&gt;" style="text;strokeColor=none;fillColor=none;align=left;verticalAlign=top;spacingLeft=4;spacingRight=4;overflow=hidden;rotatable=0;points=[[0,0.5],[1,0.5]];portConstraint=eastwest;whiteSpace=wrap;html=1;" vertex="1" parent="C-4LYL2q1EhhrCgDg1ih-26">
          <mxGeometry y="68" width="350" height="122" as="geometry" />
        </mxCell>
        <mxCell id="C-4LYL2q1EhhrCgDg1ih-30" value="" style="endArrow=none;html=1;rounded=0;entryX=0.457;entryY=0.999;entryDx=0;entryDy=0;entryPerimeter=0;" edge="1" parent="1">
          <mxGeometry width="50" height="50" relative="1" as="geometry">
            <mxPoint x="1228" y="480" as="sourcePoint" />
            <mxPoint x="1227.9499999999998" y="409.74800000000005" as="targetPoint" />
          </mxGeometry>
        </mxCell>
        <mxCell id="C-4LYL2q1EhhrCgDg1ih-31" value="" style="endArrow=none;html=1;rounded=0;entryX=0.485;entryY=0.989;entryDx=0;entryDy=0;entryPerimeter=0;exitX=0.25;exitY=0;exitDx=0;exitDy=0;" edge="1" parent="1" source="C-4LYL2q1EhhrCgDg1ih-22" target="C-4LYL2q1EhhrCgDg1ih-21">
          <mxGeometry width="50" height="50" relative="1" as="geometry">
            <mxPoint x="1210" y="750" as="sourcePoint" />
            <mxPoint x="1260" y="700" as="targetPoint" />
            <Array as="points">
              <mxPoint x="1020" y="680" />
            </Array>
          </mxGeometry>
        </mxCell>
        <mxCell id="C-4LYL2q1EhhrCgDg1ih-32" value="" style="endArrow=none;html=1;rounded=0;exitX=0.545;exitY=-0.018;exitDx=0;exitDy=0;exitPerimeter=0;" edge="1" parent="1" source="C-4LYL2q1EhhrCgDg1ih-26">
          <mxGeometry width="50" height="50" relative="1" as="geometry">
            <mxPoint x="1210" y="750" as="sourcePoint" />
            <mxPoint x="1210" y="640" as="targetPoint" />
            <Array as="points">
              <mxPoint x="1470" y="720" />
              <mxPoint x="1400" y="680" />
            </Array>
          </mxGeometry>
        </mxCell>
      </root>
    </mxGraphModel>
  </diagram>
</mxfile>
